# xmcd CD database file
#
# Track frame offsets:
#	180
#	11120
#	34367
#	56310
#	70498
#	84436
#	95521
#	108810
#	122799
#	138133
#	151372
#	165475
#	180593
#	193900
#	208912
#	222306
#	236635
#	247230
#
# Disc length: 3486 seconds
#
# Revision: 1
# Processed by: cddbd v1.5.2PL0 Copyright (c) Steve Scherf et al.
# Submitted via: CDex 1.51
#
DISCID=040d9c12
DTITLE=Nat King Cole - The Quintessence - CD2v2
DYEAR=1995
DGENRE=Swing
TTITLE0=Straighten Up And Fly Right
TTITLE1=Body And Soul
TTITLE2=Indiana
TTITLE3=I'm Lost
TTITLE4=My Lips Remember Your Kisses
TTITLE5=Jumpin' At Caitol
TTITLE6=Gee Baby, Ain't Good To You
TTITLE7=If You Can't Smile And Say Yes
TTITLE8=Embraceable You
TTITLE9=It's Only A Paper Moon
TTITLE10=I Just Can't See For Lookin'
TTITLE11=The Man I Love
TTITLE12=Prelude In C Sharp Minor
TTITLE13=Body And Soul
TTITLE14=What Is This Thing Called Love? 
TTITLE15=Easy Listening Blues
TTITLE16=Bring Another Drink
TTITLE17=Sweet Lorraine
EXTD=YEAR: 1995
EXTT0=
EXTT1=
EXTT2=
EXTT3=
EXTT4=
EXTT5=
EXTT6=
EXTT7=
EXTT8=
EXTT9=
EXTT10=
EXTT11=
EXTT12=
EXTT13=
EXTT14=
EXTT15=
EXTT16=
EXTT17=
PLAYORDER=
